<?xml version="1.0" encoding="UTF-8"?>
<!DOCTYPE svg PUBLIC "-//W3C//DTD SVG 1.1//EN" "http://www.w3.org/Graphics/SVG/1.1/DTD/svg11.dtd">
<svg xmlns="http://www.w3.org/2000/svg" version="1.1" width="128px" height="128px" style="shape-rendering:geometricPrecision; text-rendering:geometricPrecision; image-rendering:optimizeQuality; fill-rule:evenodd; clip-rule:evenodd" xmlns:xlink="http://www.w3.org/1999/xlink">
<g><path style="opacity:0.888" fill="#1fc4cb" d="M 127.5,40.5 C 127.5,55.8333 127.5,71.1667 127.5,86.5C 126.713,94.339 123.047,100.506 116.5,105C 111.714,106.537 106.881,107.704 102,108.5C 99.0112,106.477 98.8445,104.311 101.5,102C 107.925,101.973 113.425,99.8067 118,95.5C 118.862,93.913 119.529,92.2464 120,90.5C 121.57,74.5399 121.904,58.5399 121,42.5C 120.227,30.397 113.727,24.5637 101.5,25C 81.8427,24.0219 62.1761,23.1885 42.5,22.5C 41.6527,20.939 41.9861,19.439 43.5,18C 65.5594,16.979 87.5594,17.6457 109.5,20C 120.486,22.4799 126.486,29.3133 127.5,40.5 Z"/></g>
<g><path style="opacity:0.826" fill="#21c5cd" d="M 32.5,18.5 C 34.1667,18.5 35.8333,18.5 37.5,18.5C 37.5628,25.1977 35.5628,26.031 31.5,21C 32.2524,20.3292 32.5858,19.4959 32.5,18.5 Z"/></g>
<g><path style="opacity:0.888" fill="#1fc4cb" d="M -0.5,85.5 C -0.5,70.8333 -0.5,56.1667 -0.5,41.5C 1.09798,26.4097 9.59798,18.743 25,18.5C 27.9888,20.5228 28.1555,22.6895 25.5,25C 19.0745,25.0266 13.5745,27.1933 9,31.5C 8.13759,33.087 7.47093,34.7536 7,36.5C 5.42956,52.4601 5.09623,68.4601 6,84.5C 6.77341,96.603 13.2734,102.436 25.5,102C 45.1573,102.978 64.8239,103.811 84.5,104.5C 85.3473,106.061 85.0139,107.561 83.5,109C 61.4406,110.021 39.4406,109.354 17.5,107C 12.4187,106.533 8.25208,104.366 5,100.5C 2.24768,95.7344 0.41435,90.7344 -0.5,85.5 Z"/></g>
<g><path style="opacity:0.871" fill="#1fc4cb" d="M 49.5,41.5 C 54.2771,42.2202 58.6104,44.0535 62.5,47C 69.3324,51.5839 76.3324,55.9173 83.5,60C 86.1667,62.3333 86.1667,64.6667 83.5,67C 72.9593,73.4353 62.2927,79.6019 51.5,85.5C 50.3527,85.1822 49.5194,84.5156 49,83.5C 48.2016,69.4551 48.3682,55.4551 49.5,41.5 Z M 54.5,50.5 C 62.1077,54.3063 69.441,58.6397 76.5,63.5C 69.6676,68.0839 62.6676,72.4173 55.5,76.5C 54.502,67.8589 54.1686,59.1922 54.5,50.5 Z"/></g>
<g><path style="opacity:0.826" fill="#21c5cd" d="M 90.5,102.5 C 93.1142,102.277 94.7809,103.444 95.5,106C 94.0448,108.016 92.0448,108.849 89.5,108.5C 89.3253,106.379 89.6586,104.379 90.5,102.5 Z"/></g>
</svg>
