<?xml version="1.0" encoding="UTF-8"?>
<!DOCTYPE svg PUBLIC "-//W3C//DTD SVG 1.1//EN" "http://www.w3.org/Graphics/SVG/1.1/DTD/svg11.dtd">
<svg xmlns="http://www.w3.org/2000/svg" version="1.1" width="96px" height="96px" style="shape-rendering:geometricPrecision; text-rendering:geometricPrecision; image-rendering:optimizeQuality; fill-rule:evenodd; clip-rule:evenodd" xmlns:xlink="http://www.w3.org/1999/xlink">
<g><path style="opacity:0.956" fill="#1fc4cb" d="M 38.5,7.5 C 58.7812,4.63112 73.9478,11.9645 84,29.5C 85.8928,34.0068 87.0595,38.6734 87.5,43.5C 84.5,43.5 81.5,43.5 78.5,43.5C 72.8634,21.5058 58.8634,13.0058 36.5,18C 24.9194,22.6678 18.2527,31.1678 16.5,43.5C 13.5,43.5 10.5,43.5 7.5,43.5C 9.98467,24.6856 20.318,12.6856 38.5,7.5 Z"/></g>
<g><path style="opacity:0.969" fill="#59dce0" d="M 7.5,51.5 C 10.5,51.5 13.5,51.5 16.5,51.5C 17.2409,57.1493 19.2409,62.316 22.5,67C 21.0367,69.6312 19.0367,71.7979 16.5,73.5C 10.7658,67.3002 7.76581,59.9668 7.5,51.5 Z"/></g>
<g><path style="opacity:0.886" fill="#87dade" d="M 71.5,66.5 C 74.6863,67.3563 77.3529,69.023 79.5,71.5C 77.5255,75.3079 74.6922,78.3079 71,80.5C 69.0863,78.2519 67.5863,75.7519 66.5,73C 68.635,71.2461 70.3017,69.0794 71.5,66.5 Z"/></g>
<g><path style="opacity:0.946" fill="#59dce1" d="M 26.5,72.5 C 31.003,74.5786 35.6696,76.4119 40.5,78C 41.4505,81.0567 41.7839,84.2234 41.5,87.5C 33.2631,86.8034 26.7631,83.4701 22,77.5C 23.7073,75.9625 25.2073,74.2959 26.5,72.5 Z"/></g>
<g><path style="opacity:0.888" fill="#9ae0e3" d="M 57.5,76.5 C 60.9,77.5243 63.2334,79.8577 64.5,83.5C 59.6588,86.6668 54.3255,88.0001 48.5,87.5C 48.5,84.5 48.5,81.5 48.5,78.5C 51.8291,78.7847 54.8291,78.1181 57.5,76.5 Z"/></g>
</svg>
